<?xml version="1.0" standalone="no"?>
<!DOCTYPE svg PUBLIC "-//W3C//DTD SVG 20010904//EN"
 "http://www.w3.org/TR/2001/REC-SVG-20010904/DTD/svg10.dtd">
<svg version="1.0" xmlns="http://www.w3.org/2000/svg"
 width="1080.000000pt" height="1080.000000pt" viewBox="0 0 1080.000000 1080.000000"
 preserveAspectRatio="xMidYMid meet">

<g transform="translate(0.000000,1080.000000) scale(0.100000,-0.100000)"
fill="#000000" stroke="none">
<path d="M850 5395 l0 -886 753 3 c701 3 755 4 799 21 67 26 141 97 175 165
l28 57 3 763 2 762 -185 0 -185 0 0 -222 c0 -238 -6 -281 -44 -317 -33 -31
-102 -39 -144 -17 -58 30 -62 49 -62 316 l0 240 -570 0 -570 0 0 -885z"/>
<path d="M2722 5398 l3 -883 193 -3 192 -2 0 125 c0 93 3 125 13 125 12 0
1304 -235 1340 -244 16 -4 17 43 17 880 l0 884 -195 0 -195 0 0 -115 c0 -115
0 -115 -22 -110 -13 3 -311 52 -663 110 -352 58 -650 107 -663 110 l-22 5 2
-882z"/>
<path d="M5448 6270 c-272 -32 -532 -180 -694 -394 -168 -222 -206 -533 -96
-795 78 -186 283 -386 486 -476 362 -160 804 -106 1109 136 42 34 77 68 77 77
0 8 -77 194 -171 413 l-172 398 -36 -25 c-81 -55 -204 -5 -211 86 -5 65 1 83
39 121 34 35 44 39 88 39 46 0 84 -16 109 -46 8 -10 30 25 92 145 45 87 82
163 82 169 0 17 -153 88 -250 115 -145 42 -298 55 -452 37z"/>
<path d="M6450 5394 l0 -884 210 0 209 0 3 125 3 125 215 -121 c118 -67 220
-121 225 -121 6 0 107 54 225 120 l215 121 5 -122 5 -122 210 0 210 0 3 879 2
878 -22 -4 c-13 -3 -209 -80 -437 -173 l-414 -167 -176 70 c-97 39 -292 118
-433 175 l-258 104 0 -883z"/>
<path d="M8300 5393 l0 -883 193 2 192 3 3 123 c2 74 7 122 13 122 5 0 304
-54 664 -120 360 -66 663 -120 674 -120 l21 0 0 880 0 880 -195 0 -195 0 0
-116 0 -116 -27 6 c-16 3 -314 53 -663 111 -349 57 -645 106 -657 108 l-23 4
0 -884z"/>
<path d="M3870 3940 l0 -140 113 0 c87 0 120 4 146 18 52 26 76 65 76 121 0
107 -54 141 -223 141 l-112 0 0 -140z m251 61 c28 -35 25 -92 -7 -122 -22 -20
-38 -24 -105 -28 l-79 -3 0 92 0 92 86 -3 c76 -4 88 -7 105 -28z"/>
<path d="M4470 3940 l0 -140 30 0 30 0 0 140 0 140 -30 0 -30 0 0 -140z"/>
<path d="M4828 4069 c-16 -9 -18 -26 -18 -129 0 -108 2 -120 19 -130 11 -5 78
-10 150 -10 157 0 161 2 161 96 l0 64 -85 0 c-84 0 -85 0 -85 -25 0 -23 3 -25
50 -25 49 0 50 -1 50 -30 l0 -30 -100 0 -100 0 0 90 0 90 100 0 c82 0 100 -3
100 -15 0 -15 26 -20 54 -9 20 8 21 38 0 58 -12 13 -40 16 -147 16 -73 0 -140
-5 -149 -11z"/>
<path d="M5420 3940 l0 -140 30 0 30 0 0 140 0 140 -30 0 -30 0 0 -140z"/>
<path d="M5700 4055 c0 -24 2 -25 65 -25 l65 0 0 -115 0 -115 35 0 35 0 0 115
0 115 65 0 c63 0 65 1 65 25 l0 25 -165 0 -165 0 0 -25z"/>
<path d="M6236 3947 c-42 -73 -76 -136 -76 -140 0 -4 13 -7 30 -7 23 0 33 7
45 30 15 30 16 30 105 30 89 0 90 0 105 -30 13 -25 22 -30 51 -30 20 0 34 4
32 8 -1 5 -37 68 -78 140 -72 126 -76 132 -107 132 -30 0 -35 -6 -107 -133z
m139 12 l25 -49 -60 0 -60 0 27 54 c15 30 30 53 35 50 5 -3 20 -28 33 -55z"/>
<path d="M6750 3940 l0 -140 140 0 140 0 0 25 0 25 -105 0 -105 0 0 115 0 115
-35 0 -35 0 0 -140z"/>
</g>
</svg>
